<?xml version="1.0" standalone="no"?>
<!DOCTYPE svg PUBLIC "-//W3C//DTD SVG 20010904//EN"
 "http://www.w3.org/TR/2001/REC-SVG-20010904/DTD/svg10.dtd">
<svg version="1.0" xmlns="http://www.w3.org/2000/svg"
 width="300.000000pt" height="265.000000pt" viewBox="0 0 300.000000 265.000000"
 preserveAspectRatio="xMidYMid meet">
<metadata>
Created by potrace 1.10, written by Peter Selinger 2001-2011
</metadata>
<g transform="translate(0.000000,265.000000) scale(0.100000,-0.100000)"
fill="#000000" stroke="none">
<path d="M450 2035 c0 0 -1 -170 -3 -378 l-2 -377 220 0 220 0 -3 57 c-2 49 0
55 10 39 59 -88 118 -111 263 -104 93 5 122 14 163 52 49 43 55 71 60 254 l5
172 -81 0 -81 0 -3 -149 c-3 -132 -5 -151 -23 -171 -30 -33 -62 -42 -102 -29
-47 15 -54 39 -60 207 l-6 142 -80 0 -79 0 3 -161 4 -161 -128 0 -128 0 -2
302 -2 302 -83 1 c-45 1 -82 2 -82 2z m123 -157 c4 -62 7 -186 7 -275 0 -89 3
-169 6 -178 13 -32 59 -45 164 -45 55 0 100 -2 100 -4 0 -3 -4 -16 -10 -31
l-10 -25 -167 2 -168 3 -3 320 c-1 176 0 325 3 332 2 7 20 13 38 13 l34 0 6
-112z m417 -245 c1 -65 5 -110 15 -179 6 -35 46 -78 89 -94 59 -22 139 32 157
106 4 22 9 83 9 137 l0 97 40 0 40 0 0 -123 c0 -67 -4 -138 -10 -156 -23 -82
-103 -118 -235 -108 -76 6 -111 19 -159 62 l-28 26 1 135 c1 74 4 141 8 149 3
9 18 15 39 15 l34 0 0 -67z"/>
<path d="M2263 2030 c-32 -13 -65 -69 -58 -100 8 -37 60 -80 96 -80 39 0 89
48 89 85 0 38 -24 79 -55 93 -30 14 -42 14 -72 2z m71 -59 c21 -23 14 -56 -15
-72 -43 -23 -92 44 -57 79 18 18 53 14 72 -7z"/>
<path d="M1618 1740 c-20 -11 -40 -24 -43 -30 -11 -18 -25 -10 -25 15 0 24 -2
25 -75 25 l-75 0 0 -235 0 -235 78 0 77 0 3 153 c3 138 6 154 25 175 23 25 73
30 101 9 25 -18 35 -82 36 -219 l0 -118 78 0 78 0 -4 83 c-2 45 1 118 6 162
12 87 24 105 75 105 72 0 87 -38 87 -222 l0 -128 78 0 77 0 -3 172 c-3 226 -4
232 -53 268 -76 55 -174 50 -245 -12 l-36 -32 -17 22 c-23 30 -98 62 -146 61
-22 0 -57 -9 -77 -19z m120 -29 c17 -5 54 -24 81 -41 l49 -32 -13 -32 c-8 -18
-17 -88 -22 -157 l-8 -124 -30 0 -30 0 -7 126 c-7 145 -21 183 -73 205 -56 23
-87 18 -126 -22 l-34 -35 -5 -127 c-3 -70 -9 -133 -13 -139 -9 -14 -53 -18
-61 -5 -5 8 -8 145 -7 285 l1 87 36 0 c20 0 48 -7 63 -16 26 -16 30 -15 82 10
60 29 70 30 117 17z m364 -17 c15 -8 33 -24 39 -36 13 -25 25 -272 15 -312 -6
-23 -11 -27 -39 -24 l-32 3 -6 125 c-7 135 -19 174 -63 204 -14 9 -39 16 -56
16 -38 0 -31 16 14 36 34 15 84 11 128 -12z"/>
<path d="M2220 1515 l0 -235 78 0 77 0 -2 232 -2 233 -76 3 -75 3 0 -236z
m108 -2 l-3 -188 -30 0 -30 0 -3 188 -2 187 35 0 35 0 -2 -187z"/>
<path d="M2457 1459 c-24 -14 -47 -62 -47 -99 0 -47 47 -90 97 -90 45 0 77 20
99 61 31 61 -23 139 -95 139 -20 0 -44 -5 -54 -11z m91 -45 c50 -35 8 -115
-53 -100 -49 12 -58 87 -12 106 32 13 40 12 65 -6z"/>
<path d="M834 1128 c3 -13 6 -42 6 -65 0 -42 1 -43 35 -43 19 0 35 5 35 10 0
6 -11 10 -25 10 -18 0 -25 5 -25 20 0 13 7 20 20 20 11 0 20 4 20 9 0 5 -8 8
-17 7 -10 0 -19 6 -21 15 -2 12 8 20 35 27 l38 10 -54 1 c-51 1 -53 0 -47 -21z"/>
<path d="M1064 1128 c28 -39 29 -47 7 -74 -12 -15 -18 -30 -15 -33 3 -3 16 6
27 22 l21 27 22 -27 c12 -16 26 -25 30 -20 4 4 -2 17 -14 30 -26 27 -27 40 -7
57 8 7 15 20 15 29 -1 11 -7 8 -24 -12 l-23 -28 -17 25 c-9 14 -21 26 -27 26
-7 0 -5 -9 5 -22z"/>
<path d="M1742 1108 c-7 -7 -12 -24 -12 -38 0 -14 5 -31 12 -38 15 -15 54 -16
63 -2 3 6 -3 10 -14 10 -28 0 -52 11 -45 21 3 5 18 9 35 9 17 0 29 5 29 13 0
18 -21 37 -40 37 -9 0 -21 -5 -28 -12z"/>
<path d="M1960 1105 c-10 -12 -7 -19 17 -39 l28 -25 -28 -1 c-16 0 -26 -4 -22
-10 10 -16 55 -11 62 7 4 11 -1 22 -15 31 -28 18 -28 32 -1 32 11 0 17 5 14
10 -9 15 -41 12 -55 -5z"/>
<path d="M2169 1104 c-12 -15 -11 -18 4 -28 52 -31 54 -35 17 -36 -26 0 -31
-3 -20 -10 43 -28 81 9 42 41 -28 22 -28 29 1 29 18 0 19 2 7 10 -22 14 -36
12 -51 -6z"/>
<path d="M1294 1088 c3 -13 5 -41 6 -63 1 -22 4 -32 7 -22 3 10 14 17 28 17
44 0 71 50 43 78 -7 7 -29 12 -50 12 -34 0 -37 -2 -34 -22z m74 -16 c4 -30
-26 -42 -44 -17 -10 14 -11 22 -2 32 16 20 42 12 46 -15z"/>
<path d="M1530 1064 c0 -27 4 -43 10 -39 6 3 10 17 10 30 0 13 7 31 16 39 14
15 13 16 -10 16 -24 0 -26 -3 -26 -46z"/>
<path d="M1309 724 c-12 -14 -9 -20 16 -40 l30 -24 -29 0 c-22 0 -27 -3 -19
-11 13 -13 55 -8 60 8 2 6 -9 23 -24 37 -27 26 -28 26 -5 26 13 0 20 4 17 10
-9 15 -31 12 -46 -6z"/>
<path d="M1473 733 c-19 -4 -23 -11 -23 -43 0 -21 5 -42 10 -45 6 -4 10 6 10
23 0 36 27 63 41 41 5 -8 9 -26 9 -41 0 -16 5 -28 10 -28 13 0 13 56 0 81 -11
19 -15 20 -57 12z"/>
<path d="M1589 721 c-20 -16 -22 -23 -14 -47 11 -31 49 -44 68 -25 8 8 3 11
-16 11 -15 0 -30 7 -33 15 -8 20 13 45 38 45 10 0 16 5 13 10 -9 15 -30 12
-56 -9z"/>
<path d="M1696 724 c-19 -18 -21 -55 -4 -72 15 -15 54 -16 63 -2 4 6 -7 10
-24 10 -17 0 -31 5 -31 10 0 6 13 10 29 10 39 0 47 14 21 40 -24 24 -34 25
-54 4z"/>
<path d="M1400 685 c0 -36 3 -46 10 -35 5 8 10 24 10 35 0 11 -5 27 -10 35 -7
11 -10 1 -10 -35z"/>
<path d="M1329 583 c-13 -15 -11 -16 13 -10 41 11 44 -10 8 -59 l-31 -44 43 1
c24 1 33 4 21 6 -28 5 -28 5 -3 45 24 40 24 42 4 62 -20 21 -38 20 -55 -1z"/>
<path d="M1444 574 c-14 -20 -15 -33 -8 -62 8 -32 13 -37 39 -37 43 0 61 40
41 90 -18 43 -48 47 -72 9z m55 -12 c14 -27 2 -72 -20 -72 -23 0 -35 40 -19
69 13 26 26 27 39 3z"/>
<path d="M1569 584 c-11 -13 -9 -14 14 -9 23 6 27 4 27 -13 0 -11 -11 -34 -25
-50 -14 -17 -25 -33 -25 -36 0 -3 18 -6 41 -6 22 0 38 4 35 9 -3 5 -16 7 -27
4 -19 -5 -20 -4 -10 15 6 11 16 24 21 27 16 10 12 62 -6 69 -23 9 -30 8 -45
-10z"/>
<path d="M1705 589 c-17 -4 -22 -7 -11 -8 18 -1 18 -2 3 -19 -22 -24 -21 -32
3 -32 13 0 20 -7 20 -20 0 -13 -7 -20 -19 -20 -11 0 -23 -5 -26 -11 -5 -7 5
-9 26 -7 39 3 49 26 28 64 -10 19 -9 26 1 39 17 20 12 23 -25 14z"/>
</g>
</svg>
